<svg xmlns="http://www.w3.org/2000/svg" width="148.85000000000002" height="35" viewBox="0 0 148.85000000000002 35"><rect class="svg__rect" x="0" y="0" width="66.92" height="35" fill="#31C4F3"/><rect class="svg__rect" x="64.92" y="0" width="83.93" height="35" fill="#389AD5"/><path class="svg__text" d="M13.95 18.00L13.95 18.00L13.95 17.52Q13.95 16.28 14.39 15.32Q14.83 14.37 15.64 13.86Q16.44 13.35 17.49 13.35Q18.53 13.35 19.34 13.85Q20.14 14.35 20.58 15.29Q21.02 16.23 21.03 17.48L21.03 17.48L21.03 17.96Q21.03 19.21 20.59 20.16Q20.16 21.10 19.35 21.61Q18.55 22.12 17.50 22.12L17.50 22.12Q16.46 22.12 15.65 21.61Q14.84 21.10 14.40 20.17Q13.95 19.23 13.95 18.00ZM15.43 17.46L15.43 17.96Q15.43 19.36 15.98 20.13Q16.53 20.90 17.50 20.90L17.50 20.90Q18.48 20.90 19.01 20.15Q19.54 19.40 19.54 17.96L19.54 17.96L19.54 17.51Q19.54 16.09 19.01 15.34Q18.47 14.58 17.49 14.58L17.49 14.58Q16.53 14.58 15.98 15.33Q15.44 16.09 15.43 17.46L15.43 17.46ZM26.97 22L25.49 22L25.49 13.47L26.97 13.47L30.79 19.54L30.79 13.47L32.26 13.47L32.26 22L30.78 22L26.97 15.95L26.97 22ZM42.35 22L37.00 22L37.00 13.47L38.48 13.47L38.48 20.82L42.35 20.82L42.35 22ZM48.52 18.86L45.65 13.47L47.30 13.47L49.26 17.51L51.23 13.47L52.87 13.47L50.01 18.86L50.01 22L48.52 22L48.52 18.86Z" fill="#FFFFFF"/><path class="svg__text" d="M80.53 22L78.10 22L81.81 13.60L84.15 13.60L87.87 22L85.40 22L84.74 20.37L81.19 20.37L80.53 22ZM82.96 15.93L81.88 18.61L84.04 18.61L82.96 15.93ZM91.44 21.24L91.44 21.24L92.22 19.49Q92.78 19.86 93.52 20.09Q94.27 20.32 94.99 20.32L94.99 20.32Q96.35 20.32 96.36 19.64L96.36 19.64Q96.36 19.28 95.97 19.11Q95.58 18.93 94.71 18.74L94.71 18.74Q93.76 18.53 93.13 18.30Q92.49 18.06 92.04 17.55Q91.58 17.03 91.58 16.16L91.58 16.16Q91.58 15.39 92.00 14.77Q92.42 14.15 93.26 13.79Q94.09 13.43 95.30 13.43L95.30 13.43Q96.12 13.43 96.93 13.62Q97.73 13.80 98.35 14.17L98.35 14.17L97.62 15.93Q96.42 15.28 95.29 15.28L95.29 15.28Q94.58 15.28 94.25 15.49Q93.93 15.70 93.93 16.04L93.93 16.04Q93.93 16.37 94.32 16.54Q94.70 16.71 95.55 16.89L95.55 16.89Q96.51 17.10 97.14 17.33Q97.77 17.56 98.23 18.07Q98.70 18.58 98.70 19.46L98.70 19.46Q98.70 20.21 98.28 20.83Q97.86 21.44 97.02 21.80Q96.18 22.17 94.98 22.17L94.98 22.17Q93.96 22.17 92.99 21.92Q92.03 21.67 91.44 21.24ZM105.40 18.95L102.19 13.60L104.70 13.60L106.69 16.94L108.69 13.60L110.99 13.60L107.77 18.99L107.77 22L105.40 22L105.40 18.95ZM117.40 22L115.07 22L115.07 13.60L117.03 13.60L120.74 18.07L120.74 13.60L123.06 13.60L123.06 22L121.11 22L117.40 17.52L117.40 22ZM127.80 17.80L127.80 17.80Q127.80 16.54 128.40 15.54Q128.99 14.55 130.05 13.99Q131.10 13.43 132.42 13.43L132.42 13.43Q133.57 13.43 134.49 13.84Q135.42 14.25 136.03 15.02L136.03 15.02L134.52 16.39Q133.71 15.40 132.54 15.40L132.54 15.40Q131.85 15.40 131.32 15.70Q130.79 16 130.49 16.54Q130.20 17.09 130.20 17.80L130.20 17.80Q130.20 18.51 130.49 19.05Q130.79 19.60 131.32 19.90Q131.85 20.20 132.54 20.20L132.54 20.20Q133.71 20.20 134.52 19.22L134.52 19.22L136.03 20.58Q135.42 21.35 134.50 21.76Q133.57 22.17 132.42 22.17L132.42 22.17Q131.10 22.17 130.05 21.61Q128.99 21.05 128.40 20.05Q127.80 19.06 127.80 17.80Z" fill="#FFFFFF" x="77.92"/></svg>
